<?xml version="1.0" encoding="UTF-8" standalone="no"?>
<!-- Created with Inkscape (http://www.inkscape.org/) -->

<svg
   xmlns:dc="http://purl.org/dc/elements/1.1/"
   xmlns:cc="http://creativecommons.org/ns#"
   xmlns:rdf="http://www.w3.org/1999/02/22-rdf-syntax-ns#"
   xmlns:svg="http://www.w3.org/2000/svg"
   xmlns="http://www.w3.org/2000/svg"
   xmlns:sodipodi="http://sodipodi.sourceforge.net/DTD/sodipodi-0.dtd"
   xmlns:inkscape="http://www.inkscape.org/namespaces/inkscape"
   id="svg2"
   version="1.1"
   inkscape:version="0.48.5 r10040"
   width="812.5"
   height="715.42572"
   xml:space="preserve"
   sodipodi:docname="LOFAR-MWA-occupancy.pdf"><metadata
     id="metadata8"><rdf:RDF><cc:Work
         rdf:about=""><dc:format>image/svg+xml</dc:format><dc:type
           rdf:resource="http://purl.org/dc/dcmitype/StillImage" /><dc:title></dc:title></cc:Work></rdf:RDF></metadata><defs
     id="defs6" /><sodipodi:namedview
     pagecolor="#ffffff"
     bordercolor="#666666"
     borderopacity="1"
     objecttolerance="10"
     gridtolerance="10"
     guidetolerance="10"
     inkscape:pageopacity="0"
     inkscape:pageshadow="2"
     inkscape:window-width="1366"
     inkscape:window-height="715"
     id="namedview4"
     showgrid="false"
     inkscape:zoom="0.67549195"
     inkscape:cx="541.48049"
     inkscape:cy="360.79492"
     inkscape:window-x="0"
     inkscape:window-y="0"
     inkscape:window-maximized="1"
     inkscape:current-layer="g10"
     fit-margin-top="0"
     fit-margin-left="0"
     fit-margin-right="0"
     fit-margin-bottom="0" /><g
     id="g10"
     inkscape:groupmode="layer"
     inkscape:label="LOFAR-HBA-RFI-freq-plot"
     transform="matrix(1.25,0,0,-1.25,0,715.42572)"><g
       id="g12"><path
         d="M 0,0 650,0 650,559 0,559 0,0 z"
         style="fill:#ffffff;fill-opacity:1;fill-rule:nonzero;stroke:none"
         id="path14"
         inkscape:connector-curvature="0" /><path
         d="m 38.469,74.336 0.59,0 0.589,0.445 0.594,1.27 0.598,4.261 0.59,47.555 0.59,-50.793 0.593,-0.39 0.598,1.781 0.59,0.437 0.59,-0.351 0.589,2.914 0.602,-2.664 0.59,1.496 0.59,29.808 0.59,-25.871 0.597,-2.367 0.594,13.817 0.59,-19.711 0.59,1.808 0.597,-0.5 0.594,18.996 0.59,-21.652 0.59,64.293 0.597,-64.711 0.594,2.266 0.59,-1.141 0.59,0.465 0.597,1.281 0.594,4.02 0.59,-4.2 0.59,0.532 0.594,-0.293 0.597,2.605 0.59,0.09 0.59,-1.48 0.594,3.57 0.594,-6.75 0.593,-2.942 0.59,10.684 0.594,-3.043 0.594,-6.613 0.589,-1.156 0.594,1.05 0.594,0.645 0.594,1.019 0.59,-0.726 0.589,-0.043 0.598,0.043 0.594,1.015 0.59,4.165 0.59,0.292 0.593,-1.078 0.598,-2.183 0.59,-0.903 0.59,0.379 0.593,0.196 0.598,38.394 0.59,-36.918 0.59,-2.508 0.593,4.68 0.598,-4.492 0.59,-2.625 0.59,3.289 0.594,-0.16 0.597,0.387 0.59,-2.051 0.59,0.64 0.59,2.684 0.601,20.43 0.59,4.488 0.59,-26.063 0.59,5.54 0.597,-4.278 0.594,24.141 0.59,-18.535 0.59,-4.223 0.598,-0.418 0.589,-1.074 0.594,4.961 0.59,-4.824 0.598,2.437 0.589,4.84 0.59,-9.645 0.594,0.512 0.598,22.113 0.59,-2.953 0.589,-18.937 0.59,-0.243 0.602,5.247 0.59,-5.286 0.59,0.407 0.589,4.269 0.602,10.496 0.59,-13.363 0.59,0.172 0.589,2.617 0.598,-3.086 0.594,173.102 0.59,-174.453 0.59,-0.629 0.597,-0.75 0.594,223.613 0.59,-228.254 0.59,0.836 0.597,1.008 0.594,13.836 0.59,-10.43 0.59,0.566 0.597,0.805 0.594,4.719 0.59,-6 0.59,2.676 0.598,-2.871 0.589,2.636 0.594,-0.965 0.59,0.411 0.594,-0.879 0.593,0.996 0.59,0.043 0.594,0.273 0.594,-0.457 0.594,-2.992 0.589,-6.074 0.59,176.34 0.598,-123.235 0.594,428.094 0.589,-481.57 0.59,45.371 0.598,-42.098 0.594,201.082 0.59,-187.113 0.589,35.312 0.594,-6.539 0.598,-4.203 0.59,-5.812 0.589,-14.293 0.594,-1.645 0.598,-8.152 0.59,-0.899 0.59,-2.589 0.593,0.191 0.598,-0.43 0.59,-0.789 0.59,0.614 0.593,0.855 0.598,-1.863 0.59,-4.2 0.59,3.227 0.594,-2.121 0.593,-0.148 0.594,-0.563 0.59,0.133 0.59,0.367 0.597,0.723 0.594,-0.325 0.59,0.129 0.59,-0.058 0.597,0.301 0.59,0.839 0.594,3.891 0.59,-3.969 0.598,-0.179 0.589,5.921 0.59,-3.574 0.594,-0.222 0.598,0.285 0.59,-1.696 0.589,0.368 0.59,0.359 0.602,2.594 0.59,-4.211 0.589,2.484 0.59,-1.301 0.602,0.047 0.59,-0.164 0.59,0.168 0.589,0.91 0.602,-1.101 0.59,1.226 0.59,-0.312 0.589,0.304 0.598,11.758 0.594,-6.027 0.59,5.898 0.59,2.997 0.597,-13.438 0.594,20.207 0.59,-21.867 0.59,5.789 0.597,-5.941 0.594,7.074 0.59,-7.91 0.59,0.453 0.597,19.113 0.59,-17.305 0.594,-0.648 0.59,6.078 0.594,-3.688 0.593,0.145 0.59,-2.484 0.594,7.64 0.594,-6.73 0.593,3.289 0.59,-3.633 0.59,5.879 0.598,21.738 0.594,-18.023 0.589,-11.301 0.59,25.043 0.598,6.086 0.594,-13.504 0.589,-15.57 0.59,-2.09 0.598,7.207 0.594,-7.192 0.59,-0.531 0.589,0.637 0.594,0.394 0.598,-0.32 0.59,0.117 0.59,0.442 0.593,5.496 0.598,-4.645 0.59,6.219 0.59,-2.68 2.191,-3.343 3.797,10.156 0.59,-12.012 0.59,0.68 0.593,0.168 0.598,0.769 0.59,-1.777 0.59,0.891 1.164,-0.446 2.426,8.547 0.589,-6.875 0.59,0.387 0.59,-0.789 0.598,1.148 0.593,-0.609 0.59,-1.75 0.59,35.508 0.598,-23.688 0.594,-11.816 0.589,0.398 0.59,12.254 0.598,-8 0.59,-5.66 0.593,0.664 0.59,0.785 0.598,33.106 0.59,-33.422 0.59,41.125 0.593,47.039 0.598,-87.43 0.59,1.465 0.59,1.555 0.59,-3.668 0.601,-0.723 0.59,1.941 0.59,3.614 0.59,33.386 0.601,-30.203 0.59,-1.683 0.59,-5.571 0.59,0.93 0.597,-1.683 0.594,14.207 0.59,1.964 0.59,7.594 0.598,10.949 0.593,-32.972 0.59,0.437 0.59,1.692 0.598,1.683 0.593,15.602 0.59,-20.719 0.59,-0.594 0.598,-0.949 0.593,45.543 0.59,-43.574 0.59,-0.149 0.598,24.973 0.59,-24.5 0.593,-0.762 0.59,12.075 0.594,-11.762 0.594,0.164 0.59,-1.297 0.593,0.953 0.594,-0.254 0.594,6.512 0.59,-7.578 0.59,0.535 0.597,-0.293 0.594,1.625 0.59,-0.769 0.59,9.898 0.597,-10.621 0.594,0.887 0.59,3.117 0.59,-1.157 0.593,-1.75 0.598,2.223 0.59,0.481 0.59,-0.789 0.594,-0.262 0.597,4.461 0.59,1.972 0.59,-6.925 0.594,1.429 0.597,21.442 0.59,-15.52 0.59,-9.414 0.594,-0.051 0.597,4.95 0.59,-5.317 0.59,4.957 0.594,-5.234 0.594,10.125 0.593,-8.297 0.59,0.777 0.59,6.368 0.598,5.203 0.59,-11.969 0.593,1.148 0.59,-1.191 0.598,16.758 0.59,6.679 0.589,-0.574 0.594,-15.883 0.598,76.629 0.59,-83.062 0.59,0.801 0.593,7.25 0.598,153.293 0.59,-154.864 0.59,81.106 0.589,-86.981 0.602,42.852 0.59,-41.387 0.59,-5.308 0.59,23.64 0.601,128.067 0.59,-139.512 0.59,5.383 0.59,-14.723 0.597,13.324 0.594,0.278 0.59,8.312 0.59,-21.738 0.597,5.203 0.594,-2.336 0.59,-2.43 0.59,74.117 0.598,-73.679 0.593,90.816 0.59,-35.629 0.59,-50.629 0.598,30.481 0.589,-36.723 0.594,6.481 0.59,-6.446 0.598,-0.918 0.59,1.196 0.593,3.625 0.59,55.718 0.594,-57.668 0.594,-1.761 0.59,29.758 0.593,-28.86 0.594,-0.496 0.594,-0.047 0.59,94.074 0.589,-96.312 0.598,7.465 0.594,5.449 0.59,-9.625 0.59,6.082 0.597,40.422 0.594,-26.07 0.59,0.761 0.59,-23.605 0.593,-0.973 0.598,29.781 0.59,-19.589 0.59,-7.336 0.593,0.371 0.598,2.172 0.59,-1.758 0.59,31.133 0.594,-27.52 0.597,0.473 0.59,9.183 0.59,-14.461 0.594,0.075 0.597,28.902 0.59,149.91 0.59,-182.738 0.594,-1.196 0.593,6.856 0.594,2.383 0.59,-1.242 0.59,-2.895 0.598,5.879 0.589,1.457 0.594,-0.461 0.59,-4.551 0.598,1.473 0.59,-0.969 0.589,12.543 0.594,-15.504 0.598,26.199 0.59,-12.679 0.589,-13.141 0.594,-0.941 0.598,19.351 0.59,-1.625 0.59,-20.023 0.589,10.199 0.602,133.617 0.59,-57.101 0.59,-51.992 0.59,-14.016 0.601,-7.402 0.59,-3.137 0.59,-6.762 0.59,1.731 0.601,1.035 0.59,2.074 0.59,-2.367 0.59,4.515 0.597,11.477 0.594,135.887 0.59,-105.61 0.59,-40.578 0.597,15.281 0.594,-16.539 0.59,0.539 0.59,9.707 0.598,19.059 0.589,-26.715 0.594,-15.609 0.59,0.215 0.598,241.945 0.589,-227.441 0.59,41.593 0.594,41.785 0.594,-46.261 0.594,207.316 0.589,-169.82 0.59,-76.953 0.598,44.465 0.594,16.039 0.589,28.785 0.59,-20.457 L 316.5,549 317.094,247.094 317.684,117 l 0.589,62.949 0.598,53.465 0.594,-49.25 0.59,-106.133 0.59,53.27 0.597,-25.09 0.594,-21.195 0.59,-6.149 0.59,16.93 0.593,-10.574 0.598,-6.094 0.59,-1.762 0.59,-1.898 0.593,-0.313 0.598,3.414 0.59,-3.261 0.59,-0.594 0.594,0.367 0.593,9.156 0.594,-11.215 0.59,1.344 0.594,10.578 0.593,101.391 0.59,-67.211 0.594,33.23 0.59,-37.5 0.598,-16.933 0.589,-6.164 0.594,-16.504 0.59,67.781 0.598,-62.43 0.589,248.184 0.59,-259.211 0.594,296.234 0.598,-301.582 0.59,270.774 0.589,-275.106 0.594,489.102 0.598,-354.109 0.59,-22.11 0.589,-53.574 0.594,-16.996 0.598,-8.219 0.59,-10.726 0.59,-1.602 0.589,-4.144 0.602,-1.493 0.59,-2.445 0.59,2.586 0.589,-3.965 0.602,-0.5 0.59,5.77 0.59,10.336 0.59,12.617 0.597,-14.199 0.594,-6.329 0.59,-3.988 0.59,2.266 0.597,-2.703 0.594,8.293 0.59,-11.454 0.59,0.008 0.597,14.18 0.59,39.492 0.594,6.117 0.59,-31.07 0.598,-27.601 0.589,4.648 0.59,-6.895 0.594,-0.086 0.594,2.012 0.593,7.371 0.59,-7.66 0.59,-1.308 0.598,-1.055 0.594,1.879 0.589,-0.727 0.59,0.445 0.598,-1.214 0.594,1.961 0.59,-0.469 0.589,0.527 0.598,-1.34 0.594,1.477 0.59,-0.715 0.589,2.473 0.598,-3.379 0.594,26.015 0.59,-27.238 0.59,40.078 0.593,59.285 0.598,48.25 0.59,-67.437 0.59,11.617 0.593,-91.004 0.598,30.805 0.59,-11.305 0.59,-6.316 0.593,-10.379 0.594,6.305 0.594,-6.11 0.59,-2.344 0.594,-0.164 0.593,0.887 0.59,0.512 0.594,38.273 0.59,-5.496 0.597,-27.59 0.59,-5.882 0.59,7.41 0.594,1.273 0.597,2.551 0.59,-1.461 0.59,-0.191 0.594,-10.93 0.598,30.762 0.589,21.496 0.59,-44.407 0.594,-7.851 0.598,7.223 0.59,-5.844 0.589,0.031 0.594,-0.543 0.598,8.621 0.59,-0.609 0.589,51.605 0.59,61.555 0.602,-36.621 0.59,-28.551 0.59,-51.051 0.589,4.434 0.602,23.441 0.59,-23.66 0.59,-0.574 0.59,-5.289 0.597,-0.61 0.594,7.973 0.59,8.117 0.59,39.344 0.597,9.254 0.59,41.98 0.594,27.477 0.59,-121.598 0.597,25.789 0.59,-22.32 0.59,19.965 0.594,31.184 0.597,92.816 0.59,-121.801 0.59,162.781 0.594,-192.007 0.598,0.894 0.589,38.223 0.59,-31.715 0.59,15.816 0.598,32.368 0.593,15.894 0.59,-38.363 0.59,-12.852 0.598,-31.117 0.594,23.231 0.589,-9.04 0.59,-7.308 0.598,22.008 0.594,9.843 0.589,29.977 0.59,-11.953 0.598,-4.524 0.594,46.239 0.59,-45.309 0.589,-35.746 0.594,-11.723 0.598,18.254 0.59,-21.269 0.59,1.91 0.593,-0.75 0.594,42.43 0.594,-43.86 0.59,80.102 0.593,-80.383 0.594,3.211 0.594,-0.992 0.59,-0.891 0.593,-1.004 0.594,2.75 0.59,0.012 0.594,-0.285 0.594,-1.059 0.593,5.664 0.59,-0.84 0.59,-2.683 0.594,1.07 0.597,2.66 0.59,31.461 0.59,-5.566 0.594,-30.66 0.598,7.195 0.589,-9.086 0.59,4.914 0.594,2.398 0.598,30.333 0.589,7.027 0.59,-37.199 0.594,-6.043 0.598,10.332 0.59,27.812 0.589,-32.543 0.59,-2.004 0.602,-0.765 0.59,2.629 0.589,-1.055 0.59,1.367 0.602,1.258 0.59,-0.344 0.59,12.985 0.589,37.812 0.598,-31.844 0.594,-20.101 0.59,4.793 0.589,79.129 0.598,-56.133 0.59,57.812 0.594,-36.511 0.59,-44.329 0.597,16.887 0.59,-10.582 0.59,-5.164 0.594,44.996 0.597,-8.441 0.59,-35.703 0.59,77.625 0.59,-62.45 0.601,-26.015 0.59,4.531 0.59,19.957 0.59,-8.187 0.598,-4.641 0.593,-3.09 0.59,-3.934 0.59,2.567 0.598,-1.266 0.593,13.055 0.59,-13.969 0.59,1.934 0.598,-2.559 0.594,20.414 0.589,-20.523 0.59,17.558 0.598,27.817 0.594,-12.805 0.59,-17.183 0.589,32.39 0.598,-25.664 0.594,47.574 0.59,112.707 0.589,-47.5 0.594,-74.984 0.594,-8.457 0.594,-35.949 0.59,6.25 0.593,5.418 0.594,34.613 0.59,-40.16 0.594,4.312 0.593,34.547 0.594,61.02 0.59,-120.875 0.59,0.23 0.597,5.199 0.594,24.961 0.59,-14.257 0.59,14.906 0.594,-31.102 0.597,11.68 0.59,-7.449 0.59,-2.282 0.594,-0.734 0.597,108.125 0.59,-124.519 0.59,3.054 0.594,185.586 0.597,292.258 0.59,-472.348 0.59,27.368 0.594,-25.528 0.598,72.535 0.589,-67.828 0.59,54.645 0.594,-54.098 0.598,65.199 0.59,-57.332 0.589,18.199 0.59,0.485 0.598,3.191 0.594,-8.054 0.589,-1.219 0.59,2.16 0.598,-20.707 0.59,0.238 0.594,-0.812 0.589,-0.301 0.598,4.281 0.59,0.098 0.594,15.316 0.59,-10.593 0.597,-11.223 0.59,0.746 0.59,0.277 0.594,3.578 0.597,-3.449 0.59,1.098 0.59,2.519 0.59,-3.281 0.601,-1.902 0.59,7.972 0.59,-4.246 0.59,10.25 0.598,31.793 0.593,48.09 0.59,-47.613 0.59,-6.914 0.598,-14.219 0.593,20.172 0.59,-29.027 0.59,91.789 0.598,-92.453 0.593,47.574 0.59,-63.496 0.59,1.636 0.598,5.055 0.594,27.551 0.589,-33.113 0.59,-0.731 0.598,2.871 0.594,-1.761 0.589,4.472 0.59,32.199 0.594,-19.382 0.594,16.089 0.594,-36.484 0.589,172.34 0.594,-172.887 0.594,3.356 0.59,2.304 0.594,-0.468 0.593,8.976 0.594,-8.211 0.59,-3.609 0.59,0.504 0.597,0.718 0.594,1.711 0.59,-3.363 0.59,0.906 0.594,-1.007 0.597,1.347 0.59,0.719 0.59,34.086 0.594,-36.942 0.597,5.493 0.59,-3.696 0.59,1.957 0.594,0.715 0.597,-0.039 0.59,1.992 0.59,-2.324 0.594,1.551 0.598,-1.488 0.589,3.539 0.59,-5.973 0.594,19.352 0.598,-9.563 0.589,-11.226 0.59,1.828 0.59,-1.024 0.598,1.848 0.594,-3.133 0.589,0.848 0.59,0.429 0.598,2.028 0.59,-3.117 0.593,3.144 0.59,-1.047 0.598,34.461 0.59,-35.945 0.59,23.512 0.593,-22.219 0.598,0.836 0.59,1.238 0.59,-0.004 0.59,1.973 0.601,-1.278 0.59,1.875 0.59,-5.613 0.59,2.317 0.601,43.918 0.59,-5.18 0.59,-31.442 0.59,-8.996 0.601,-1.129 0.59,2.008 0.59,0.774 0.59,1.308 0.598,-1.675 0.593,5.355 0.59,-6.559 0.59,4.528 0.598,0.418 0.593,0.781 0.59,-0.41 0.59,-2.012 0.598,0.211 0.593,2.578 0.59,-2.226 0.59,-2.547 0.598,0.183 0.59,1.129 0.593,-2.902 0.59,1.797 0.594,-1.231 0.594,-1.25 0.59,139.598 0.593,-4.391 0.594,-133.472 0.594,0.515 0.59,-0.562 0.593,1.125 0.594,-0.727 0.594,0.321 0.59,-2.5 0.59,5.121 0.597,47.488 0.594,-48.125 0.59,-2.887 0.59,0.852 0.597,16.988 0.594,-8.969 0.59,-9.179 0.59,0.793 0.594,7.882 0.597,4.422 0.59,-11.902 0.59,1.172 0.594,5.422 0.597,-4.817 0.59,-2.847 0.59,1.441 0.594,5.82 0.597,-4.23 0.59,-1.934 0.59,3.278 0.594,-2.094 0.597,4.433 0.59,7.239 0.59,-14.824 0.59,149.417 0.598,-135.117 0.593,-11.218 0.59,-4.25 0.59,179.418 0.598,-177.79 0.59,0.418 0.593,0.325 0.59,26.5 0.598,-24.786 0.59,-3.543 0.59,3.137 0.593,-1.437 0.598,222.238 0.59,-208.695 0.59,62.406 0.593,-68.953 0.598,-4.492 0.59,0.172 0.59,-0.657 0.59,15.082 0.601,-14.652 0.59,0.738 0.59,-0.933 0.59,1.554 0.601,-0.215 0.59,-4.347 0.59,-0.047 0.59,3.371 0.597,304.211 0.594,-270.715 0.59,-32.68 0.59,5.082 0.598,-2.085 0.593,2.183 0.59,-5.883 0.59,0.84 0.598,-1.008 0.593,3 0.59,12.356 0.59,-11.418 0.598,12.5 0.59,-4.317 0.593,-1.394 0.59,-1.512 0.598,-4.523 0.59,-1.461 0.59,-1.653 0.593,-0.578 0.594,49.145 0.594,-7.457 0.59,-38.156 0.589,-5.125 0.598,6.414 0.594,4.632 0.59,-9.886 0.59,5.66 0.597,-1.133 0.594,2.777 0.59,-4.566 0.59,18.445 0.597,-20.164 0.594,1.5 0.59,-1.051 0.59,-0.816 0.593,1.316 0.598,-2.054 0.59,-2.594 0.59,4.691 0.594,113.512 0.597,-33.441 0.59,-45 0.59,-36.738 0.594,1.441 0.597,1.641 0.59,-2.739 0.59,2.375 0.492,-0.57"
         style="fill:none;stroke:#ff0000;stroke-width:2;stroke-linecap:butt;stroke-linejoin:miter;stroke-miterlimit:10;stroke-opacity:1;stroke-dasharray:none"
         id="path16"
         inkscape:connector-curvature="0" /><path
         d="m 38.469,44.719 594.398,0"
         style="fill:none;stroke:#808080;stroke-width:2;stroke-linecap:butt;stroke-linejoin:miter;stroke-miterlimit:10;stroke-opacity:1;stroke-dasharray:none"
         id="path18"
         inkscape:connector-curvature="0" /><text
         transform="matrix(1,0,0,-1,26.898438,24.109375)"
         id="text20"><tspan
           style="font-size:14px;font-variant:normal;font-weight:normal;writing-mode:lr-tb;fill:#000000;fill-opacity:1;fill-rule:nonzero;stroke:none;font-family:Bitstream Vera Sans;-inkscape-font-specification:BitstreamVeraSans-Roman"
           x="0 8.9040003 17.808001"
           y="0"
           sodipodi:role="line"
           id="tspan22">115</tspan><tspan
           style="font-size:14px;font-variant:normal;font-weight:normal;writing-mode:lr-tb;fill:#000000;fill-opacity:1;fill-rule:nonzero;stroke:none;font-family:Bitstream Vera Sans;-inkscape-font-specification:BitstreamVeraSans-Roman"
           x="61.261719 70.165718 79.069717 122.80572 131.70972 140.61372 184.05573 192.95972 201.89258 245.62857 254.53258 263.43658 306.87857 315.78256 324.68658"
           y="0.37499979"
           sodipodi:role="line"
           id="tspan24">120125130135140</tspan><tspan
           style="font-size:14px;font-variant:normal;font-weight:normal;writing-mode:lr-tb;fill:#000000;fill-opacity:1;fill-rule:nonzero;stroke:none;font-family:Bitstream Vera Sans;-inkscape-font-specification:BitstreamVeraSans-Roman"
           x="368.45312 377.35712 386.26111"
           y="0"
           sodipodi:role="line"
           id="tspan26">145</tspan><tspan
           style="font-size:14px;font-variant:normal;font-weight:normal;writing-mode:lr-tb;fill:#000000;fill-opacity:1;fill-rule:nonzero;stroke:none;font-family:Bitstream Vera Sans;-inkscape-font-specification:BitstreamVeraSans-Roman"
           x="429.71484 438.61884 447.52283"
           y="0.37499979"
           sodipodi:role="line"
           id="tspan28">150</tspan><tspan
           style="font-size:14px;font-variant:normal;font-weight:normal;writing-mode:lr-tb;fill:#000000;fill-opacity:1;fill-rule:nonzero;stroke:none;font-family:Bitstream Vera Sans;-inkscape-font-specification:BitstreamVeraSans-Roman"
           x="491.26953 500.17352 509.07751"
           y="0"
           sodipodi:role="line"
           id="tspan30">155</tspan><tspan
           style="font-size:14px;font-variant:normal;font-weight:normal;writing-mode:lr-tb;fill:#000000;fill-opacity:1;fill-rule:nonzero;stroke:none;font-family:Bitstream Vera Sans;-inkscape-font-specification:BitstreamVeraSans-Roman"
           x="552.53125 561.43524 570.33923"
           y="0.37499979"
           sodipodi:role="line"
           id="tspan32">160</tspan></text>
<path
         d="m 38.887,44.719 0,-3 m 61.406,3 0,-3 m 61.41,3 0,-3 m 61.406,3 0,-3 m 61.411,3 0,-3 m 61.41,3 0,-3 m 61.406,3 0,-3 m 61.41,3 0,-3 m 61.41,3 0,-3 m 61.406,3 0,-3"
         style="fill:none;stroke:#000000;stroke-width:2;stroke-linecap:butt;stroke-linejoin:miter;stroke-miterlimit:10;stroke-opacity:1;stroke-dasharray:none"
         id="path34"
         inkscape:connector-curvature="0" /><text
         transform="matrix(1,0,0,-1,228.32813,7.90625)"
         id="text36"><tspan
           style="font-size:14px;font-variant:normal;font-weight:normal;writing-mode:lr-tb;fill:#000000;fill-opacity:1;fill-rule:nonzero;stroke:none;font-family:Bitstream Vera Sans;-inkscape-font-specification:BitstreamVeraSans-Roman"
           x="0 8.0500002 13.804 22.414 31.290001 40.152 48.762001 57.624001 65.309998 73.584 78.022003 83.482002 95.550003 106.064 113.4"
           y="0"
           sodipodi:role="line"
           id="tspan38">Frequency (MHz)</tspan></text>
<path
         d="m 101.758,11.766 110.75,0"
         style="fill:none;stroke:#000000;stroke-width:2;stroke-linecap:butt;stroke-linejoin:miter;stroke-miterlimit:10;stroke-opacity:1;stroke-dasharray:none"
         id="path40"
         inkscape:connector-curvature="0" /><path
         d="m 212.508,11.766 -15.82,-5.414 6.328,5.414 -6.328,5.414 15.82,-5.414 z"
         style="fill:#000000;fill-opacity:1;fill-rule:nonzero;stroke:none"
         id="path42"
         inkscape:connector-curvature="0" /><text
         transform="matrix(1,0,0,-1,26.40625,39.625)"
         id="text44"><tspan
           style="font-size:14px;font-variant:normal;font-weight:normal;writing-mode:lr-tb;fill:#000000;fill-opacity:1;fill-rule:nonzero;stroke:none;font-family:Bitstream Vera Sans;-inkscape-font-specification:BitstreamVeraSans-Roman"
           x="0"
           y="0"
           id="tspan46">0</tspan><tspan
           style="font-size:14px;font-variant:normal;font-weight:normal;writing-mode:lr-tb;fill:#000000;fill-opacity:1;fill-rule:nonzero;stroke:none;font-family:Bitstream Vera Sans;-inkscape-font-specification:BitstreamVeraSans-Roman"
           x="0.59374982"
           y="-33.515621"
           id="tspan48">2</tspan><tspan
           style="font-size:14px;font-variant:normal;font-weight:normal;writing-mode:lr-tb;fill:#000000;fill-opacity:1;fill-rule:nonzero;stroke:none;font-family:Bitstream Vera Sans;-inkscape-font-specification:BitstreamVeraSans-Roman"
           x="-0.37499979"
           y="-67.230461"
           id="tspan50">4</tspan><tspan
           style="font-size:14px;font-variant:normal;font-weight:normal;writing-mode:lr-tb;fill:#000000;fill-opacity:1;fill-rule:nonzero;stroke:none;font-family:Bitstream Vera Sans;-inkscape-font-specification:BitstreamVeraSans-Roman"
           x="0.0156254"
           y="-100.85547"
           id="tspan52">6</tspan><tspan
           style="font-size:14px;font-variant:normal;font-weight:normal;writing-mode:lr-tb;fill:#000000;fill-opacity:1;fill-rule:nonzero;stroke:none;font-family:Bitstream Vera Sans;-inkscape-font-specification:BitstreamVeraSans-Roman"
           x="0.062500343"
           y="-134.47656"
           id="tspan54">8</tspan><tspan
           style="font-size:14px;font-variant:normal;font-weight:normal;writing-mode:lr-tb;fill:#000000;fill-opacity:1;fill-rule:nonzero;stroke:none;font-family:Bitstream Vera Sans;-inkscape-font-specification:BitstreamVeraSans-Roman"
           x="-8.2968712 0.60712832"
           y="-168.09377"
           sodipodi:role="line"
           id="tspan56">10</tspan><tspan
           style="font-size:14px;font-variant:normal;font-weight:normal;writing-mode:lr-tb;fill:#000000;fill-opacity:1;fill-rule:nonzero;stroke:none;font-family:Bitstream Vera Sans;-inkscape-font-specification:BitstreamVeraSans-Roman"
           x="-7.8124967 1.0915031"
           y="-201.60938"
           sodipodi:role="line"
           id="tspan58">12</tspan><tspan
           style="font-size:14px;font-variant:normal;font-weight:normal;writing-mode:lr-tb;fill:#000000;fill-opacity:1;fill-rule:nonzero;stroke:none;font-family:Bitstream Vera Sans;-inkscape-font-specification:BitstreamVeraSans-Roman"
           x="-8.4374971 0.46650255"
           y="-235.32422"
           sodipodi:role="line"
           id="tspan60">14</tspan><tspan
           style="font-size:14px;font-variant:normal;font-weight:normal;writing-mode:lr-tb;fill:#000000;fill-opacity:1;fill-rule:nonzero;stroke:none;font-family:Bitstream Vera Sans;-inkscape-font-specification:BitstreamVeraSans-Roman"
           x="-8.3437471 0.56025255"
           y="-268.94922"
           sodipodi:role="line"
           id="tspan62">16</tspan><tspan
           style="font-size:14px;font-variant:normal;font-weight:normal;writing-mode:lr-tb;fill:#000000;fill-opacity:1;fill-rule:nonzero;stroke:none;font-family:Bitstream Vera Sans;-inkscape-font-specification:BitstreamVeraSans-Roman"
           x="-8.2656221 0.63837761"
           y="-302.57031"
           sodipodi:role="line"
           id="tspan64">18</tspan><tspan
           style="font-size:14px;font-variant:normal;font-weight:normal;writing-mode:lr-tb;fill:#000000;fill-opacity:1;fill-rule:nonzero;stroke:none;font-family:Bitstream Vera Sans;-inkscape-font-specification:BitstreamVeraSans-Roman"
           x="-8.7968721 0.107128"
           y="-336.18753"
           sodipodi:role="line"
           id="tspan66">20</tspan><tspan
           style="font-size:14px;font-variant:normal;font-weight:normal;writing-mode:lr-tb;fill:#000000;fill-opacity:1;fill-rule:nonzero;stroke:none;font-family:Bitstream Vera Sans;-inkscape-font-specification:BitstreamVeraSans-Roman"
           x="-8.3124971 0.59150279"
           y="-369.70312"
           sodipodi:role="line"
           id="tspan68">22</tspan><tspan
           style="font-size:14px;font-variant:normal;font-weight:normal;writing-mode:lr-tb;fill:#000000;fill-opacity:1;fill-rule:nonzero;stroke:none;font-family:Bitstream Vera Sans;-inkscape-font-specification:BitstreamVeraSans-Roman"
           x="-8.9374981 -0.033497799"
           y="-403.32425"
           sodipodi:role="line"
           id="tspan70">24</tspan><tspan
           style="font-size:14px;font-variant:normal;font-weight:normal;writing-mode:lr-tb;fill:#000000;fill-opacity:1;fill-rule:nonzero;stroke:none;font-family:Bitstream Vera Sans;-inkscape-font-specification:BitstreamVeraSans-Roman"
           x="-8.8437481 0.060252219"
           y="-437.04297"
           sodipodi:role="line"
           id="tspan72">26</tspan><tspan
           style="font-size:14px;font-variant:normal;font-weight:normal;writing-mode:lr-tb;fill:#000000;fill-opacity:1;fill-rule:nonzero;stroke:none;font-family:Bitstream Vera Sans;-inkscape-font-specification:BitstreamVeraSans-Roman"
           x="-8.7656231 0.13837726"
           y="-470.66409"
           sodipodi:role="line"
           id="tspan74">28</tspan><tspan
           style="font-size:14px;font-variant:normal;font-weight:normal;writing-mode:lr-tb;fill:#000000;fill-opacity:1;fill-rule:nonzero;stroke:none;font-family:Bitstream Vera Sans;-inkscape-font-specification:BitstreamVeraSans-Roman"
           x="-8.7656231 0.13837726"
           y="-504.28128"
           sodipodi:role="line"
           id="tspan76">30</tspan></text>
<text
         transform="matrix(0,1,1,0,12.625,196.00391)"
         id="text78"><tspan
           style="font-size:14px;font-variant:normal;font-weight:normal;writing-mode:lr-tb;fill:#000000;fill-opacity:1;fill-rule:nonzero;stroke:none;font-family:Bitstream Vera Sans;-inkscape-font-specification:BitstreamVeraSans-Roman"
           x="0 9.7159996 17.766001 21.882 26.32 31.780001 45.080002"
           y="0"
           sodipodi:role="line"
           id="tspan80">RFI (%)</tspan></text>
<path
         d="m 8.234,95.148 0,88.247"
         style="fill:none;stroke:#000000;stroke-width:2;stroke-linecap:butt;stroke-linejoin:miter;stroke-miterlimit:10;stroke-opacity:1;stroke-dasharray:none"
         id="path82"
         inkscape:connector-curvature="0" /><path
         d="m 8.234,183.395 -4.988,-12.606 4.988,5.043 4.989,-5.043 -4.989,12.606 z"
         style="fill:#000000;fill-opacity:1;fill-rule:nonzero;stroke:none"
         id="path84"
         inkscape:connector-curvature="0" /><path
         d="m 38.469,549 594.398,0 0,-504.281 -594.398,0 0,504.281 z"
         style="fill:none;stroke:#000000;stroke-width:2;stroke-linecap:butt;stroke-linejoin:miter;stroke-miterlimit:10;stroke-opacity:1;stroke-dasharray:none"
         id="path86"
         inkscape:connector-curvature="0" /></g><path
       inkscape:connector-curvature="0"
       id="path14-4"
       style="fill:none;stroke:#000000;stroke-width:1.05173206;stroke-linecap:butt;stroke-linejoin:miter;stroke-miterlimit:3.79999995;stroke-opacity:1;stroke-dasharray:none"
       d="m 40.001479,44.268009 6.00124,0 m 586.787891,0 -6.00124,0" /><path
       inkscape:connector-curvature="0"
       id="path150"
       style="fill:none;stroke:#000000;stroke-width:1.05173206;stroke-linecap:butt;stroke-linejoin:miter;stroke-miterlimit:3.79999995;stroke-opacity:1;stroke-dasharray:none"
       d="m 40.001479,44.268009 592.789131,0 -592.789131,0"
       sodipodi:nodetypes="ccc" /><path
       inkscape:connector-curvature="0"
       id="path162"
       style="fill:none;stroke:#0000ff;stroke-width:1.57759821;stroke-linecap:butt;stroke-linejoin:miter;stroke-miterlimit:3.79999995;stroke-opacity:1;stroke-dasharray:none"
       d="m 40.001479,54.138272 0.09525,-0.116121 1.71464,0 0.571547,0.696724 0.666804,0.464483 0.571546,-0.696724 0.571547,-0.116121 0.571546,0 0.666805,-0.11612 0.571547,-0.232242 0.571546,-0.116121 0.571547,0 0.666804,0.116121 5.334436,1.045087 0.571546,-0.348363 2.381445,0 0.571546,-0.11612 0.571547,0 0.666805,0.580603 1.143093,-0.11612 0.571547,-0.928966 0.666804,-0.232242 0.571546,-0.11612 0.571548,-0.116121 0.571546,0 0.571547,0.116121 0.666804,0.812845 5.334436,0.232241 0.571546,-0.580603 0.571547,-0.116121 1.809898,0 0.571546,0.232241 0.571547,0.116121 0.666804,0.116121 0.571547,0.812845 0.571547,-0.348362 0.571546,-0.812845 0.666804,0 0.571547,-0.116121 0.571546,-0.232242 0.571548,-0.11612 0.666804,-0.116121 0.571547,0.116121 0.571546,0.11612 5.334436,0.812845 0.571546,-0.348362 1.809898,0 0.571547,0.116121 0.666804,-0.116121 0.571547,0.116121 0.571546,0.348362 1.143094,-0.580603 0.666804,-0.696725 0.571547,0 0.571546,0.116121 0.571547,0.116121 0.666805,0.11612 0.571546,0 0.571547,0.232242 0.571546,0.348362 5.33444,-0.348362 0.6668,0 0.57154,0.464483 0.57156,-0.232242 0.57153,0.116121 0.66681,0.232241 0.57155,0.348363 0.57155,0.348362 0.57154,0.696724 1.23836,-1.509569 0.57155,-0.348362 0.57154,-0.464483 0.6668,0.464483 0.57155,-0.464483 0.57154,0 0.57155,0.232241 0.57155,0.580604 5.42969,0.232241 0.57155,0 0.57155,-0.348362 0.57154,0 0.6668,0.348362 0.57155,0.580604 0.57155,-0.348362 0.57155,0.232241 0.57155,0.116121 0.6668,0.696724 0.57154,-1.393449 1.1431,0 0.66681,3.251381 0.57154,-3.367501 0.57155,0.11612 0.57155,0.116121 0.66679,0.464483 0.57155,0.580604" /><path
       inkscape:connector-curvature="0"
       id="path164"
       style="fill:none;stroke:#0000ff;stroke-width:1.57759821;stroke-linecap:butt;stroke-linejoin:miter;stroke-miterlimit:3.79999995;stroke-opacity:1;stroke-dasharray:none"
       d="m 126.78131,55.880083 5.33443,1.741811 0.57155,-2.322415 0.57155,1.393449 0.66681,10.334746 0.57154,-10.799229 0.57155,-0.232241 0.57155,0.232241 0.66681,0.464483 0.57154,0.116121 1.14309,-0.812845 0.6668,-1.161208 0.57155,0 0.57155,0.232242 0.57154,-0.232242 0.57155,0.116121 0.66681,0.232241 0.57155,0.464483 5.90598,0 0.66679,-0.696724 0.57155,0.116121 1.14309,0 0.57155,0.11612 0.66681,0.464483 0.57155,0.348363 0.57154,0.11612 1.23836,-0.928966 0.57155,-0.464483 0.57154,0 0.57155,0.348363 0.6668,-0.464483 0.57154,0.580603 0.57155,-0.696724 0.57155,0.348362 5.33443,2.670777 0.66681,-2.554656 0.57155,-0.232242 0.57154,0 0.57155,2.438536 0.6668,-2.438536 1.14309,0 0.57156,0.348363 1.23834,0.11612 0.57155,-0.696724 0.57155,-0.116121 0.57154,0 0.66681,2.670777 0.57155,-2.786897 0.57154,-0.116121 0.57155,0.116121 0.6668,0.348362 5.33443,0.812845 0.57155,-0.580604 0.57155,-0.232241 0.57154,0.11612 0.66681,0.232242 0.57155,1.393449 0.57155,-1.625691 0.57154,0.928966 0.66681,4.064226 1.14309,-4.180346 0.57155,-0.464483 0.6668,-0.696725 0.57155,-0.11612 0.57154,0 0.57155,0.11612 0.66681,-0.11612 0.57155,0.232241 5.33443,2.554656 0.57155,-1.277328 0.57154,-0.812845 0.6668,-0.348362 0.57155,-0.232242 0.57154,0 0.57155,-0.232241 0.66681,0.116121 0.57155,-0.116121 0.57154,0.696724 0.57155,0.232242 0.57155,0.812845 0.6668,-1.62569 0.57155,-0.116121 0.57155,-0.116121 0.57154,-0.116121 0.6668,0.928966 0.57155,-1.045086 0.57155,0.348362 5.33443,1.277328 0.57155,-0.812845 0.66681,-0.232242 0.57154,0 0.57155,-0.11612 0.57155,0.11612 0.66679,0 0.57155,0.116121 0.57155,3.599743 1.23835,-3.019139 0.57155,-0.580604 0.57155,0.348362 0.57154,5.457675 0.66681,-5.341554 0.57155,-0.696724 0.57154,0.348362" /><path
       inkscape:connector-curvature="0"
       id="path166"
       style="fill:none;stroke:#0000ff;stroke-width:1.57759821;stroke-linecap:butt;stroke-linejoin:miter;stroke-miterlimit:3.79999995;stroke-opacity:1;stroke-dasharray:none"
       d="m 220.61022,54.602755 0.57155,6.735003 6.00123,-2.670777 0.57155,2.554656 0.57155,2.903018 0.57154,9.40578 0.66681,-2.903018 0.57155,-9.289659 0.57155,-4.412589 0.57154,0.116121 0.57155,0.928966 1.23835,-0.580604 0.57155,1.625691 0.57155,-1.50957 0.6668,0.232242 0.57154,0.11612 0.57155,1.857932 0.57155,-0.348362 0.66681,-0.812845 5.33443,6.502761 0.57155,2.438536 0.57154,-4.412588 0.57155,23.68863 0.6668,-23.108027 0.57154,-0.696724 0.57155,-1.393449 0.57155,-0.696724 0.66681,-0.116121 0.57154,0.464483 0.57155,-0.580604 0.57155,-0.464483 0.57154,1.857932 0.66681,16.721386 0.57155,-18.463197 0.57154,-0.232242 0.57155,0.116121 0.6668,0.116121 0.57155,0.464483 5.33443,0.348362 0.57155,-1.161207 0.57154,0.232241 0.66681,0.348362 0.57155,0.116121 0.57155,0 0.57154,0.232242 0.6668,0.232241 0.57155,0.696725 1.14309,-1.393449 0.66681,-0.696725 0.57155,-0.232241 0.57154,0.232241 0.57155,0.232242 0.66681,0.11612 0.57154,0.580604 0.57155,0.116121 5.33443,-8.012331 0.57155,10.915349 0.6668,-12.65716 0.57155,0.232241 0.57154,0.116121 0.57155,0.116121 0.66681,0.232241 0.57155,0 0.57154,0.232242 0.57155,0.232241 0.57155,-0.812845 1.23835,0 0.57155,-0.232241 0.57154,0.11612 0.6668,-0.11612 0.57155,-0.232242 0.57155,0.348362 0.57154,0.464483 5.33444,0.348362 0.66681,-0.812845 0.57154,-0.232241 0.57155,0.232241 0.57154,0.348363 0.6668,0.11612 0.57155,0.348362 0.57155,0.348363 0.57154,0.928966 1.23836,2.438535 0.57155,2.438536 0.57154,4.644829 0.66681,10.566987 0.57155,16.837507 0.57154,21.250099 0.57155,18.92768 0.57155,7.3156 0.6668,13.93449 5.33443,247.10493 0.57155,-36.11354 0.57154,-37.62312 0.66681,31.9332 0.57155,10.79923 0.57155,32.62993 0.57154,29.49466 0.57155,82.67797 0.6668,-13.81837 0.19051,48.88683 m 1.52413,0 0,-9.05742 0.19052,9.05742" /><path
       inkscape:connector-curvature="0"
       id="path168"
       style="fill:none;stroke:#0000ff;stroke-width:1.57759821;stroke-linecap:butt;stroke-linejoin:miter;stroke-miterlimit:3.79999995;stroke-opacity:1;stroke-dasharray:none"
       d="m 318.15419,547.65141 3.42927,-304.46857 0.57155,-67.35003 0.57155,68.62735 0.6668,-96.26409 0.57154,-50.744763 0.57155,-23.804751 0.57155,-8.012331 0.66681,-5.225433 0.57154,-3.251381 0.57155,-1.857932 0.57154,-1.741811 0.6668,-0.580604 0.57155,-0.464483 0.57156,-0.464483 0.57154,0 0.57155,-0.696724 0.6668,-0.232241 0.57155,0.11612 0.57154,0.696725 5.33444,6.038278 0.66681,0.348362 0.57154,0.928966 0.57155,1.045087 0.57154,1.50957 0.57155,-2.206295 0.6668,-0.696724 0.57155,-0.696724 0.57154,-0.580604 1.23836,-0.232242 0.57155,-0.928965 0.57154,-0.348363 0.57155,-0.232241 0.66681,-0.232242 0.57154,-0.11612 0.57155,-0.116121 0.57155,0.348362 6.00123,-1.045087 0.57155,-0.348362 0.57154,0 0.57155,0.232242 0.66681,0.464483 0.57154,0.696724 0.57155,1.50957 0.57155,1.045086 0.6668,0.580604 1.14309,-3.948105 0.57155,-0.812845 0.57154,-0.348362 0.66681,-0.116121 0.57155,-0.116121 0.57155,-0.116121 0.57154,0 0.66681,0.348363 5.33443,4.528708 0.57155,-3.599743 0.57155,-0.232241 0.57154,0 0.6668,-0.116121 0.57155,0.116121 0.57155,0 0.57154,0.580604 0.66681,1.045086 1.14309,0.696725 0.57155,-1.625691 0.6668,-0.464483 0.57155,-0.580603 0.57155,-0.232242 0.57155,-0.11612 0.6668,-0.116121 0.57155,0 0.57154,0.232241 5.33444,0.928966 0.57154,-0.928966 0.66681,-0.232241 1.71464,0 0.6668,0.116121 0.57155,0.348362 0.57154,1.62569 1.1431,1.161207 0.66681,1.741812 0.57154,-1.277329 0.57155,-1.974052 0.57154,-0.348362 0.66681,-1.277328 0.57155,-0.232242 0.57155,0.232242 5.33443,0.11612 0.57155,-0.464483 0.6668,-0.11612 0.57154,0.11612 0.57155,0.348363 0.57155,-0.116121 0.6668,0.116121 0.57155,0.11612 0.57155,0.232242 0.57154,0.580603 0.6668,-0.928965 0.57155,-0.348363 0.57155,0 0.57154,0.232242 0.57155,0.348362" /><path
       inkscape:connector-curvature="0"
       id="path170"
       style="fill:none;stroke:#0000ff;stroke-width:1.57759821;stroke-linecap:butt;stroke-linejoin:miter;stroke-miterlimit:3.79999995;stroke-opacity:1;stroke-dasharray:none"
       d="m 408.83958,54.022151 0.66681,0.812845 0.57154,0.696725 0.57155,0.812845 0.57155,0.696724 5.42969,6.502762 0.57155,0.348362 0.57155,2.206294 0.57154,7.663969 0.57155,3.948105 0.6668,0.696724 0.57155,9.289659 0.57154,18.927685 0.57155,-14.515097 1.23835,23.920877 0.57155,-28.333465 0.57155,1.857932 0.6668,-10.218625 0.57154,-1.741811 0.57156,-8.128452 0.57155,-3.715863 0.6668,-0.580604 5.90598,-7.89621 0.57154,-0.464483 0.57155,-1.161208 0.66681,-0.464483 0.57154,-0.348362 0.57155,-0.348362 0.57155,-0.116121 0.6668,0 0.57154,0.348362 1.1431,-1.161207 0.57154,-0.464483 2.38145,0 0.66681,0.232242 0.57155,0.348362 5.33443,0.348362 0.57155,-0.348362 0.57154,-0.116121 0.6668,0 0.57155,0.116121 1.14309,0 0.66681,0.116121 0.57155,0.11612 0.57154,0.464483 0.57155,-0.464483 0.6668,0 0.57155,-0.232241 0.57154,0.116121 0.57155,0.11612 0.66681,0.928966 0.57154,0.696725 0.57155,1.277328 0.57155,0.696724 5.33443,4.180347 0.66681,-0.116121 0.57155,-1.161207 0.57154,-0.348363 0.57155,0.580604 0.6668,0.464483 0.57155,2.090173 0.57154,2.670777 0.57155,3.01914 1.23835,7.199485 0.57155,6.386641 0.57155,69.672448 0.57154,-34.25562 0.6668,58.98933 0.57155,-98.470384 0.57156,-8.476814 0.57154,-0.464483 5.33444,-10.683108 0.6668,0.116121 0.57154,-2.903018 0.57155,-0.580604 0.57154,0.116121 0.66681,-1.625691 0.57155,-0.232241 0.57155,-0.116121 0.57154,0 0.6668,0.580604 0.57155,0.232241 0.57155,-0.580603 0.57154,-0.116121 0.66681,-0.232242 0.57155,0 0.57154,1.161208 0.57155,-0.812845 0.57155,-0.812846 0.66681,0.116121 5.33443,1.393449 0.57155,-0.232241 0.57154,-0.232242 0.6668,-0.232241 1.1431,0 0.57154,-0.116121 0.57155,0.116121 0.66681,0.928965 1.14309,-0.232241 0.57155,-0.696724" /><path
       inkscape:connector-curvature="0"
       id="path172"
       style="fill:none;stroke:#0000ff;stroke-width:1.57759821;stroke-linecap:butt;stroke-linejoin:miter;stroke-miterlimit:3.79999995;stroke-opacity:1;stroke-dasharray:none"
       d="m 502.09695,53.78991 0.6668,0 0.57154,-0.348363 0.57155,0 0.57155,-0.11612 0.6668,-0.116121 0.57155,0 0.57155,0.232241 5.33443,1.045087 0.57155,-0.464483 0.66681,-0.232241 0.57154,0.11612 0.57155,-0.232241 1.23835,0 0.57154,0.580604 0.57155,0.11612 1.23835,0.348362 0.57155,-0.812845 0.57155,-0.348362 0.57154,0 0.57155,-0.348362 0.6668,0.116121 0.57155,-0.232242 0.57154,0.232242 5.33445,1.161207 0.6668,-0.348362 0.57154,-0.232242 0.57155,-0.11612 0.57154,0 0.57155,-0.232242 1.23836,0 0.57154,0.116121 0.57155,0.696724 0.6668,0 0.57155,-0.580603 0.57154,-0.232242 0.57155,-0.116121 0.66681,-0.11612 0.57154,-0.116121 0.57155,0 0.57155,0.232241 0.6668,-0.11612 5.33444,0.928966 0.57155,-0.348363 0.57154,-0.11612 0.57155,0 0.6668,0.11612 0.57154,-0.11612 0.57155,0 0.57155,0.11612 0.66681,0.696725 1.14309,-0.464483 0.57155,-0.696725 0.57154,-0.11612 0.6668,-0.232242 1.71464,0 0.66681,0.232242 5.90598,0.580603 0.57155,-0.348362 1.23835,0 0.57155,0.116121 0.57155,0 0.57154,0.232241 0.6668,0.116121 0.57155,0.696724 1.14309,-0.696724 0.66681,-0.580604 0.57155,0 0.57154,-0.11612 0.57155,0 0.57155,-0.116121 0.6668,0.116121 0.57154,0.232241 5.33445,0.580604 0.57154,3.019139 0.6668,-3.367501 1.71464,0 0.57155,0.11612 0.66681,0 0.57154,0.348363 1.1431,-0.348363 0.6668,-0.580603 0.57154,-0.116121 1.14309,0 0.66681,0.116121 0.57155,0 0.57155,0.11612 0.57154,0.348363 5.33444,0.348362 0.66681,-0.464483 0.57154,0 0.57155,0.116121 1.23834,0 0.57155,0.232241 0.57155,0.116121 0.57154,0.696724" /><path
       inkscape:connector-curvature="0"
       id="path174"
       style="fill:none;stroke:#0000ff;stroke-width:1.57759821;stroke-linecap:butt;stroke-linejoin:miter;stroke-miterlimit:3.79999995;stroke-opacity:1;stroke-dasharray:none"
       d="m 595.3543,54.834996 1.23836,-0.580603 0.57155,-0.696725 0.57154,-0.232241 0.57155,0 0.6668,-0.116121 1.14309,0 0.57155,0.232241 5.42969,1.045087 0.57155,-0.464483 0.57155,-0.232241 0.57154,0 0.57155,-0.116121 1.8099,0 0.57155,0.116121 0.6668,0.580603 0.57154,0 0.57155,-0.696724 0.57155,-0.116121 0.66681,-0.116121 0.57154,-0.11612 0.57155,0 0.57155,-0.116121 0.6668,0 0.57154,0.348362 5.33445,0.928966 0.57154,-0.348362 0.57155,-0.348362 0.6668,0.11612 0.57154,-0.11612 0.57155,-0.116121 0.57155,0.116121 0.66681,0 0.57154,0.696724 1.1431,0.116121 0.57154,-0.696725 0.6668,-0.348362 0.57155,-0.232241 0.57154,-0.116121 0.57155,-0.116121 0.66681,0 0.57155,0.116121 0.57154,0.116121" /><rect
       style="fill:none;stroke:#ff0000;stroke-width:4;stroke-miterlimit:4;stroke-opacity:1;stroke-dasharray:none;stroke-dashoffset:0"
       id="rect3397"
       width="15.396187"
       height="1.1843221"
       x="47.965042"
       y="-567.29028"
       transform="scale(1,-1)" /><rect
       style="fill:none;stroke:#0001ff;stroke-width:4;stroke-miterlimit:4;stroke-opacity:1;stroke-dasharray:none;stroke-dashoffset:0"
       id="rect3397-8"
       width="15.396187"
       height="1.1843221"
       x="369.50848"
       y="-564.92157"
       transform="scale(1,-1)" /><text
       xml:space="preserve"
       style="font-size:32px;font-style:normal;font-weight:normal;line-height:125%;letter-spacing:0px;word-spacing:0px;fill:#000000;fill-opacity:1;stroke:none;font-family:Sans"
       x="71.059326"
       y="-560.18433"
       id="text3417"
       sodipodi:linespacing="125%"
       transform="scale(1,-1)"><tspan
         sodipodi:role="line"
         id="tspan3419"
         x="71.059326"
         y="-560.18433"
         style="font-size:16px">LOFAR data (Offringa et al., 2012)</tspan></text>
<text
       xml:space="preserve"
       style="font-size:32px;font-style:normal;font-weight:normal;line-height:125%;letter-spacing:0px;word-spacing:0px;fill:#000000;fill-opacity:1;stroke:none;font-family:Sans"
       x="394.97141"
       y="-559"
       id="text3421"
       sodipodi:linespacing="125%"
       transform="scale(1,-1)"><tspan
         sodipodi:role="line"
         id="tspan3423"
         x="394.97141"
         y="-559"
         style="font-size:16px">MWA data (this work)</tspan></text>
</g></svg>